<mxfile host="Electron" modified="2023-06-10T16:56:06.498Z" agent="Mozilla/5.0 (Macintosh; Intel Mac OS X 10_15_7) AppleWebKit/537.36 (KHTML, like Gecko) draw.io/21.3.7 Chrome/112.0.5615.204 Electron/24.5.0 Safari/537.36" etag="K05jth4X4gKvoj8v9zZv" version="21.3.7" type="device">
  <diagram name="Page-1" id="KuVlT-52XpX_c8L2TQXA">
    <mxGraphModel dx="1114" dy="755" grid="1" gridSize="10" guides="1" tooltips="1" connect="1" arrows="1" fold="1" page="1" pageScale="1" pageWidth="850" pageHeight="1100" math="0" shadow="0">
      <root>
        <mxCell id="0" />
        <mxCell id="1" parent="0" />
        <mxCell id="pwK3djHjhO8CceE-ZW0B-1" value="" style="rounded=1;whiteSpace=wrap;html=1;" vertex="1" parent="1">
          <mxGeometry x="330" y="60" width="150" height="50" as="geometry" />
        </mxCell>
        <mxCell id="pwK3djHjhO8CceE-ZW0B-10" style="edgeStyle=orthogonalEdgeStyle;rounded=0;orthogonalLoop=1;jettySize=auto;html=1;entryX=0.5;entryY=0;entryDx=0;entryDy=0;" edge="1" parent="1" source="pwK3djHjhO8CceE-ZW0B-2" target="pwK3djHjhO8CceE-ZW0B-4">
          <mxGeometry relative="1" as="geometry" />
        </mxCell>
        <mxCell id="pwK3djHjhO8CceE-ZW0B-2" value="START" style="text;html=1;strokeColor=none;fillColor=none;align=center;verticalAlign=middle;whiteSpace=wrap;rounded=0;" vertex="1" parent="1">
          <mxGeometry x="375" y="70" width="60" height="30" as="geometry" />
        </mxCell>
        <mxCell id="pwK3djHjhO8CceE-ZW0B-4" value="" style="rounded=1;whiteSpace=wrap;html=1;" vertex="1" parent="1">
          <mxGeometry x="330" y="160" width="150" height="50" as="geometry" />
        </mxCell>
        <mxCell id="pwK3djHjhO8CceE-ZW0B-11" style="edgeStyle=orthogonalEdgeStyle;rounded=0;orthogonalLoop=1;jettySize=auto;html=1;entryX=0.5;entryY=0;entryDx=0;entryDy=0;" edge="1" parent="1" source="pwK3djHjhO8CceE-ZW0B-5" target="pwK3djHjhO8CceE-ZW0B-6">
          <mxGeometry relative="1" as="geometry" />
        </mxCell>
        <mxCell id="pwK3djHjhO8CceE-ZW0B-5" value="Show logo from art.py" style="text;html=1;strokeColor=none;fillColor=none;align=center;verticalAlign=middle;whiteSpace=wrap;rounded=0;" vertex="1" parent="1">
          <mxGeometry x="375" y="170" width="60" height="30" as="geometry" />
        </mxCell>
        <mxCell id="pwK3djHjhO8CceE-ZW0B-6" value="" style="rounded=1;whiteSpace=wrap;html=1;" vertex="1" parent="1">
          <mxGeometry x="330" y="280" width="150" height="50" as="geometry" />
        </mxCell>
        <mxCell id="pwK3djHjhO8CceE-ZW0B-17" value="" style="edgeStyle=orthogonalEdgeStyle;rounded=0;orthogonalLoop=1;jettySize=auto;html=1;" edge="1" parent="1" source="pwK3djHjhO8CceE-ZW0B-7" target="pwK3djHjhO8CceE-ZW0B-16">
          <mxGeometry relative="1" as="geometry" />
        </mxCell>
        <mxCell id="pwK3djHjhO8CceE-ZW0B-7" value="Ask for Name input" style="text;html=1;strokeColor=none;fillColor=none;align=center;verticalAlign=middle;whiteSpace=wrap;rounded=0;" vertex="1" parent="1">
          <mxGeometry x="375" y="290" width="75" height="30" as="geometry" />
        </mxCell>
        <mxCell id="pwK3djHjhO8CceE-ZW0B-19" value="" style="edgeStyle=orthogonalEdgeStyle;rounded=0;orthogonalLoop=1;jettySize=auto;html=1;" edge="1" parent="1" source="pwK3djHjhO8CceE-ZW0B-16" target="pwK3djHjhO8CceE-ZW0B-18">
          <mxGeometry relative="1" as="geometry" />
        </mxCell>
        <mxCell id="pwK3djHjhO8CceE-ZW0B-16" value="Ask for Bid price" style="whiteSpace=wrap;html=1;" vertex="1" parent="1">
          <mxGeometry x="330" y="385" width="160" height="45" as="geometry" />
        </mxCell>
        <mxCell id="pwK3djHjhO8CceE-ZW0B-23" value="" style="edgeStyle=orthogonalEdgeStyle;rounded=0;orthogonalLoop=1;jettySize=auto;html=1;" edge="1" parent="1" source="pwK3djHjhO8CceE-ZW0B-18" target="pwK3djHjhO8CceE-ZW0B-22">
          <mxGeometry relative="1" as="geometry" />
        </mxCell>
        <mxCell id="pwK3djHjhO8CceE-ZW0B-18" value="Add Name and Bid into a dictionary as the key and value" style="whiteSpace=wrap;html=1;" vertex="1" parent="1">
          <mxGeometry x="330" y="510" width="160" height="45" as="geometry" />
        </mxCell>
        <mxCell id="pwK3djHjhO8CceE-ZW0B-25" value="Yes" style="edgeStyle=orthogonalEdgeStyle;rounded=0;orthogonalLoop=1;jettySize=auto;html=1;" edge="1" parent="1" source="pwK3djHjhO8CceE-ZW0B-22" target="pwK3djHjhO8CceE-ZW0B-24">
          <mxGeometry relative="1" as="geometry" />
        </mxCell>
        <mxCell id="pwK3djHjhO8CceE-ZW0B-27" value="" style="edgeStyle=orthogonalEdgeStyle;rounded=0;orthogonalLoop=1;jettySize=auto;html=1;" edge="1" parent="1" source="pwK3djHjhO8CceE-ZW0B-22" target="pwK3djHjhO8CceE-ZW0B-26">
          <mxGeometry relative="1" as="geometry" />
        </mxCell>
        <mxCell id="pwK3djHjhO8CceE-ZW0B-28" value="No" style="edgeLabel;html=1;align=center;verticalAlign=middle;resizable=0;points=[];" vertex="1" connectable="0" parent="pwK3djHjhO8CceE-ZW0B-27">
          <mxGeometry x="-0.1778" y="1" relative="1" as="geometry">
            <mxPoint as="offset" />
          </mxGeometry>
        </mxCell>
        <mxCell id="pwK3djHjhO8CceE-ZW0B-22" value="Ask if there are other users who want to bid" style="rhombus;whiteSpace=wrap;html=1;" vertex="1" parent="1">
          <mxGeometry x="340" y="610" width="140" height="110" as="geometry" />
        </mxCell>
        <mxCell id="pwK3djHjhO8CceE-ZW0B-29" style="edgeStyle=orthogonalEdgeStyle;rounded=0;orthogonalLoop=1;jettySize=auto;html=1;entryX=0;entryY=0.5;entryDx=0;entryDy=0;" edge="1" parent="1" source="pwK3djHjhO8CceE-ZW0B-24" target="pwK3djHjhO8CceE-ZW0B-6">
          <mxGeometry relative="1" as="geometry">
            <Array as="points">
              <mxPoint x="190" y="305" />
            </Array>
          </mxGeometry>
        </mxCell>
        <mxCell id="pwK3djHjhO8CceE-ZW0B-24" value="Clear the screen" style="whiteSpace=wrap;html=1;" vertex="1" parent="1">
          <mxGeometry x="130" y="635" width="120" height="60" as="geometry" />
        </mxCell>
        <mxCell id="pwK3djHjhO8CceE-ZW0B-26" value="Find the highest bid in the dictionary and declare them as the winner" style="whiteSpace=wrap;html=1;" vertex="1" parent="1">
          <mxGeometry x="570" y="635" width="120" height="60" as="geometry" />
        </mxCell>
      </root>
    </mxGraphModel>
  </diagram>
</mxfile>
